<svg width="327" height="288" viewBox="0 0 327 288" fill="none" xmlns="http://www.w3.org/2000/svg">
<path d="M5.98106 136.22C11.0856 136.158 19.154 135.677 23.681 137.273C27.6568 141.177 28.0296 151.755 29.6923 157.274C51.9538 231.168 129.875 269.296 203.061 248.972C244.348 237.819 277.836 207.629 293.203 167.709C296.181 160.151 298.776 142.535 301.266 138.124C305.578 135.383 317.436 135.886 322.221 136.56C331.138 137.815 323.383 166.89 322.243 172.336C319.318 183.228 315.178 193.754 309.891 203.713C290.181 240.436 256.746 267.86 216.883 279.991C173.326 293.253 122.002 288.83 81.9403 267.484C44.8483 247.72 16.2455 214.49 5.0518 173.865C3.02005 166.491 -2.36796 146.235 1.18104 138.934C2.07729 137.09 4.12106 136.65 5.98106 136.22Z" fill="#53A519"/>
<path d="M226.806 0.417892C230.053 0.186085 233.316 0.0488111 236.578 0.00530051C306.763 -0.65261 325.333 60.101 259.408 89.8855C200.496 116.501 132.538 118.152 68.9526 117.518C63.9126 117.468 39.1003 117.192 36.2773 114.183C38.9826 111.221 78.1168 106.067 84.8496 104.992C128.008 97.5148 172.665 84.8938 211.948 65.2862C219.523 62.0754 249.508 43.6884 241.333 33.6675C233.001 23.4598 188.991 32.6825 179.451 35.2632C169.327 37.9713 159.4 41.3666 149.739 45.4259C145.463 47.1858 131.086 55.4588 128.339 50.903C129.843 45.5324 140.138 38.1476 144.643 34.6428C169.036 15.6646 196.393 4.79596 226.806 0.417892Z" fill="#53A519"/>
<path d="M45.8759 136.238C57.9539 136.482 129.664 135.035 135.438 137.516C137.119 139.761 136.646 138.716 136.951 141.827C135.545 146.692 113.676 166.07 108.197 171.268C102.367 176.923 81.8773 197.598 76.8598 200.022C60.6988 207.83 36.8736 150.429 41.1486 138.882C43.4668 136.449 42.3149 137.209 45.8759 136.238Z" fill="#53A519"/>
<path d="M192.651 136.202C205.798 136.392 276.508 134.46 283.476 137.608C284.818 138.215 285.208 139.266 285.516 140.615C287.893 151.061 273.928 177.996 268.033 187.29C263.961 193.057 259.648 201.264 252.073 201.982C249.463 200.937 246.486 198.545 244.401 196.557C226.236 179.223 207.613 162.091 190.311 143.908C188.751 142.268 188.691 141.224 188.571 139.163C189.973 137.101 190.213 137.13 192.651 136.202Z" fill="#53A519"/>
<path d="M173.232 152.168C174.514 152.22 175.996 152.229 177.233 152.587C181.131 153.715 234.898 206.698 238.108 212.155C238.558 212.924 238.446 213.352 238.183 214.184C236.548 219.295 226.213 223.96 221.758 226.484C210.171 232.248 198.418 236.298 185.563 238.099C182.083 238.586 174.757 239.753 171.875 237.113C167.979 233.542 169.466 172.99 169.739 164.267C169.889 159.488 169.516 155.644 173.232 152.168Z" fill="#53A519"/>
<path d="M147.846 152.423C148.77 152.388 149.771 152.319 150.687 152.459C152.602 152.752 153.83 153.413 154.734 155.166C156.669 158.919 156.522 231.158 154.375 235.729C153.812 236.927 152.642 237.419 151.413 237.845C141.513 241.278 117.184 232.81 107.692 228.507C101.771 225.666 87.9635 219.478 87.8743 212.491C91.1548 205.395 140.716 157.733 147.846 152.423Z" fill="#53A519"/>
</svg>
